<svg xmlns="http://www.w3.org/2000/svg" width="400" height="340"><linearGradient id="grad1" x1="0%" y1="0%" x2="100%" y2="0%"><stop offset="0%" style="stop-color:#641ab1;stop-opacity:1" /><stop offset="100%" style="stop-color:#d900ff;stop-opacity:1" /></linearGradient><path fill="url(#grad1)" d="M275.9453561390886,267.91210575950726C268.3193467484077,282.8596284277769,254.55675844500783,304.0505105334638,239.1404671488519,309.68513600961785C223.724175852696,315.3197614857719,201.20826831486167,307.29213794854724,183.44760836215303,301.71985861643145C165.6869484094444,296.14757928431567,141.08940935446947,289.87143645299494,132.57650743260007,276.25146001692303C124.06360551073067,262.6314835808511,133.32026923856822,239.44075468113644,132.37019683093666,220C131.4201244233051,200.55924531886356,119.36143992238124,176.29926399439387,126.87607298681071,159.60693193010437C134.3907060512402,142.91459986581486,159.12845195079464,123.55483953956072,177.45799521751348,119.8460076142629C195.78753848423233,116.13717568896509,222.18323381262277,127.37953389357051,236.85333258712373,137.35394037831747C251.5234313616247,147.32834686306444,257.471389380217,165.91810325246428,265.47858786451917,179.6924465227447C273.48578634882136,193.4667897930251,283.15206211384196,205.29672346053957,284.89652349293686,220C286.64098487203177,234.70327653946043,283.5713655297694,252.9645830912376,275.9453561390886,267.91210575950726" stroke="none" stroke-width="3"/></svg>